<?xml version="1.0" encoding="UTF-8" standalone="no"?>
<!-- Created with Inkscape (http://www.inkscape.org/) -->

<svg
   xmlns:dc="http://purl.org/dc/elements/1.1/"
   xmlns:cc="http://creativecommons.org/ns#"
   xmlns:rdf="http://www.w3.org/1999/02/22-rdf-syntax-ns#"
   xmlns:svg="http://www.w3.org/2000/svg"
   xmlns="http://www.w3.org/2000/svg"
   xmlns:xlink="http://www.w3.org/1999/xlink"
   xmlns:sodipodi="http://sodipodi.sourceforge.net/DTD/sodipodi-0.dtd"
   xmlns:inkscape="http://www.inkscape.org/namespaces/inkscape"
   width="64px"
   height="64px"
   id="svg3769"
   version="1.1"
   inkscape:version="0.48.3.1 r9886"
   sodipodi:docname="MarcoCastrillonLogo.svg">
  <title
     id="title3777">MACF</title>
  <defs
     id="defs3771">
    <inkscape:perspective
       sodipodi:type="inkscape:persp3d"
       inkscape:vp_x="-0.90804578 : 29.670312 : 1"
       inkscape:vp_y="0 : 642.61425 : 0"
       inkscape:vp_z="67.29764 : 29.670312 : 1"
       inkscape:persp3d-origin="33.194797 : 22.81576 : 1"
       id="perspective3911" />
    <inkscape:perspective
       sodipodi:type="inkscape:persp3d"
       inkscape:vp_x="0 : 32 : 1"
       inkscape:vp_y="0 : 1000 : 0"
       inkscape:vp_z="64 : 32 : 1"
       inkscape:persp3d-origin="32 : 21.333333 : 1"
       id="perspective3791" />
  </defs>
  <sodipodi:namedview
     id="base"
     pagecolor="#ffffff"
     bordercolor="#666666"
     borderopacity="1.0"
     inkscape:pageopacity="0.0"
     inkscape:pageshadow="2"
     inkscape:zoom="5.5"
     inkscape:cx="32"
     inkscape:cy="32"
     inkscape:current-layer="layer1"
     showgrid="true"
     inkscape:document-units="px"
     inkscape:grid-bbox="true"
     inkscape:window-width="1600"
     inkscape:window-height="838"
     inkscape:window-x="-8"
     inkscape:window-y="-8"
     inkscape:window-maximized="1" />
  <metadata
     id="metadata3774">
    <rdf:RDF>
      <cc:Work
         rdf:about="">
        <dc:format>image/svg+xml</dc:format>
        <dc:type
           rdf:resource="http://purl.org/dc/dcmitype/StillImage" />
        <dc:title>MACF</dc:title>
      </cc:Work>
    </rdf:RDF>
  </metadata>
  <g
     id="layer1"
     inkscape:label="Layer 1"
     inkscape:groupmode="layer">
    <path
       sodipodi:type="star"
       style="opacity:0;fill:#000080;stroke-width:105;stroke-miterlimit:4;stroke-dasharray:none"
       id="path3779"
       sodipodi:sides="5"
       sodipodi:cx="12.181818"
       sodipodi:cy="20"
       sodipodi:r1="19.79899"
       sodipodi:r2="9.8994946"
       sodipodi:arg1="0.78539816"
       sodipodi:arg2="1.4137167"
       inkscape:flatsided="false"
       inkscape:rounded="0"
       inkscape:randomized="0"
       d="M 26.181818,34 13.73044,29.777615 3.1932646,37.64103 3.3613041,24.494276 -7.3734138,16.902756 5.1818186,13.000001 9.0845735,0.44476819 16.676094,11.179486 29.822847,11.011446 21.959433,21.548622 z"
       inkscape:transform-center-x="0.95710115"
       inkscape:transform-center-y="-0.95710115" />
    <path
       sodipodi:type="star"
       style="opacity:0;fill:#000080;stroke-width:105;stroke-miterlimit:4;stroke-dasharray:none"
       id="path3781"
       sodipodi:sides="5"
       sodipodi:cx="16"
       sodipodi:cy="20.909092"
       sodipodi:r1="16.18284"
       sodipodi:r2="6.3036127"
       sodipodi:arg1="1.0920745"
       sodipodi:arg2="1.720393"
       inkscape:flatsided="false"
       inkscape:rounded="0"
       inkscape:randomized="0"
       d="M 23.454546,35.272729 15.060514,27.142301 4.6429505,32.437394 9.7815484,21.941755 1.5264119,13.670337 13.096272,15.314104 18.41188,4.9069935 l 2.011969,11.5115425 11.540363,1.83947 -10.326395,5.470758 z"
       inkscape:transform-center-x="-0.18815757"
       inkscape:transform-center-y="-1.0235296" />
    <path
       sodipodi:type="star"
       style="opacity:0;fill:#000080;stroke-width:105;stroke-miterlimit:4;stroke-dasharray:none"
       id="path3783"
       sodipodi:sides="5"
       sodipodi:cx="17.636364"
       sodipodi:cy="22.727273"
       sodipodi:r1="7.1996327"
       sodipodi:r2="2.8044333"
       sodipodi:arg1="0.78539816"
       sodipodi:arg2="1.4137167"
       inkscape:flatsided="false"
       inkscape:rounded="0"
       inkscape:randomized="0"
       d="m 22.727273,27.818183 -4.652199,-2.321003 -3.707275,3.645014 0.769797,-5.141734 -4.612225,-2.399457 5.127959,-0.856763 0.856763,-5.127959 2.399457,4.612225 5.141734,-0.769797 -3.645014,3.707275 z"
       inkscape:transform-center-x="0.34803678"
       inkscape:transform-center-y="-0.34803678" />
    <path
       sodipodi:type="arc"
       style="opacity:0;fill:#000080;stroke-width:105;stroke-miterlimit:4;stroke-dasharray:none"
       id="path3785"
       sodipodi:cx="15.545455"
       sodipodi:cy="26.818182"
       sodipodi:rx="7.909091"
       sodipodi:ry="11.909091"
       d="m 23.454546,26.818182 a 7.909091,11.909091 0 1 1 -15.818182,0 7.909091,11.909091 0 1 1 15.818182,0 z" />
    <path
       sodipodi:type="arc"
       style="opacity:0;fill:#000080;stroke-width:105;stroke-miterlimit:4;stroke-dasharray:none"
       id="path3787"
       sodipodi:cx="18.545454"
       sodipodi:cy="25.181818"
       sodipodi:rx="1.2727273"
       sodipodi:ry="2.4545455"
       d="m 19.818181,25.181818 a 1.2727273,2.4545455 0 1 1 -2.545454,0 1.2727273,2.4545455 0 1 1 2.545454,0 z" />
    <path
       sodipodi:type="arc"
       style="opacity:0;fill:#000080;stroke-width:105;stroke-miterlimit:4;stroke-dasharray:none"
       id="path3789"
       sodipodi:cx="19.363636"
       sodipodi:cy="30.636364"
       sodipodi:rx="6.6363635"
       sodipodi:ry="6.4545455"
       d="m 26,30.636364 a 6.6363635,6.4545455 0 1 1 -13.272727,0 6.6363635,6.4545455 0 1 1 13.272727,0 z" />
    <g
       sodipodi:type="inkscape:box3d"
       style="opacity:0;fill:#000080;stroke-width:105;stroke-miterlimit:4;stroke-dasharray:none"
       id="g3793"
       inkscape:perspectiveID="#perspective3791"
       inkscape:corner0="1.1728395 : 0.029234569 : 0 : 1"
       inkscape:corner7="0.19727891 : 0.0039183677 : 0.25 : 1">
      <path
         sodipodi:type="inkscape:box3dside"
         id="path3803"
         style="fill:#afafde;fill-rule:evenodd;stroke:none"
         inkscape:box3dsidetype="13"
         d="m 14.727273,35.105751 12,2.530613 6.438414,-0.973614 -13.354222,-1.877465 z" />
      <path
         sodipodi:type="inkscape:box3dside"
         id="path3795"
         style="fill:#353564;fill-rule:evenodd;stroke:none"
         inkscape:box3dsidetype="6"
         d="m 14.727273,23.454545 0,11.651206 5.084192,-0.320466 0,-10.44898 z" />
      <path
         sodipodi:type="inkscape:box3dside"
         id="path3805"
         style="fill:#e9e9ff;fill-rule:evenodd;stroke:none"
         inkscape:box3dsidetype="11"
         d="m 19.811465,24.336305 13.354222,-5.165831 0,17.492276 -13.354222,-1.877465 z" />
      <path
         sodipodi:type="inkscape:box3dside"
         id="path3797"
         style="fill:#4d4d9f;fill-rule:evenodd;stroke:none"
         inkscape:box3dsidetype="5"
         d="m 14.727273,23.454545 12,-6.962963 6.438414,2.678892 -13.354222,5.165831 z" />
      <path
         sodipodi:type="inkscape:box3dside"
         id="path3801"
         style="fill:#d7d7ff;fill-rule:evenodd;stroke:none"
         inkscape:box3dsidetype="14"
         d="m 26.727273,16.491582 0,21.144782 6.438414,-0.973614 0,-17.492276 z" />
      <path
         sodipodi:type="inkscape:box3dside"
         id="path3799"
         style="fill:#8686bf;fill-rule:evenodd;stroke:none"
         inkscape:box3dsidetype="3"
         d="m 14.727273,23.454545 12,-6.962963 0,21.144782 -12,-2.530613 z" />
    </g>
    <path
       style="opacity:0;fill:#000080;stroke-width:105;stroke-miterlimit:4;stroke-dasharray:none"
       id="path3807"
       d="m 7.7360277,32.226977 c 0.2515768,-0.804246 0.5563136,-1.587679 0.8821466,-2.364276 0.263357,-0.594045 0.5330985,-1.17802 0.8966261,-1.717561 0.4112115,-0.637491 0.7633256,-1.316683 1.0769496,-2.007351 0.207523,-0.527221 0.45881,-1.028554 0.747319,-1.515196 0.237264,-0.442805 0.555226,-0.8244 0.893174,-1.191946 0.302332,-0.30551 0.626623,-0.585844 0.915282,-0.904655 0.205719,-0.267486 0.437056,-0.511789 0.674579,-0.750685 0,0 2.483074,-1.026377 2.483074,-1.026377 l 0,0 c -0.239238,0.230904 -0.489076,0.455512 -0.684196,0.726613 -0.26573,0.344096 -0.576879,0.639929 -0.909831,0.918041 -0.337099,0.356985 -0.678908,0.701367 -0.916086,1.137338 -0.282767,0.488806 -0.585725,0.96324 -0.780778,1.497716 -0.306768,0.702845 -0.666839,1.38423 -1.046105,2.049891 -0.381509,0.522577 -0.663088,1.089117 -0.935373,1.675092 -0.332733,0.753019 -0.636346,1.515707 -0.863661,2.307789 0,0 -2.4331203,1.165567 -2.4331203,1.165567 z"
       inkscape:connector-curvature="0" />
    <path
       style="opacity:0;fill:#000080;stroke-width:105;stroke-miterlimit:4;stroke-dasharray:none"
       id="path3809"
       d="m 15.643174,24.382456 c -0.621123,-0.835109 -1.046178,-1.796977 -1.446439,-2.752097 -0.127376,-0.419756 -0.472031,-1.004747 -0.237799,-1.456596 0.02808,-0.05416 0.0746,-0.09656 0.111895,-0.144838 0.83513,-0.444721 1.644043,-0.94263 2.505391,-1.334164 0.07686,-0.03494 0.163089,0.0479 0.237803,0.08722 0.540697,0.284579 1.114813,1.11205 1.468401,1.581951 1.075596,1.541729 2.035992,3.15667 2.841525,4.85484 0.223466,0.599561 0.68697,1.302358 0.416183,1.95676 -0.806982,0.482588 -1.602119,0.985559 -2.420946,1.447764 -0.02691,0.01519 -0.317947,0.01522 -0.342399,0.01849 -0.05018,0.0067 -0.190899,0.06337 -0.147017,0.03812 2.687538,-1.546179 2.880728,-1.684023 2.08898,-1.142062 -0.34851,0.461086 -0.630934,0.967375 -0.927244,1.462508 -0.41848,0.509294 -0.896801,0.962572 -1.320603,1.468406 -0.709022,0.910076 -1.820911,1.276256 -2.97221,1.596173 -0.167796,0.04663 -0.255151,-0.240322 -0.356442,-0.38199 -0.273553,-0.382599 -0.647408,-1.173088 -0.84069,-1.556638 -0.756202,-1.676674 -1.64062,-3.284114 -2.628237,-4.833943 -0.640911,-0.947809 -0.654976,-1.489439 -0.547702,-2.611459 0.199411,-0.974386 0.338414,-2.117217 1.083405,-2.856246 0.09541,-0.09464 0.215235,-0.160982 0.322853,-0.241474 2.190466,-1.148861 2.556559,-2.061453 3.916438,-0.491586 0.338186,0.493901 0.529851,1.062209 0.806938,1.587799 0.456021,0.858194 0.623486,1.825638 0.754897,2.777932 0.02664,0.567762 0.122592,1.11963 0.23554,1.673663 0.117687,0.502577 -0.05116,0.932858 -0.295428,1.365367 -0.321076,0.499399 -0.596483,1.014893 -0.807933,1.569747 -0.225282,0.706651 -0.248333,1.452674 -0.347306,2.182577 -0.06039,0.403837 -0.01337,0.79199 0.08601,1.182479 0,0 -2.375202,1.285167 -2.375202,1.285167 l 0,0 c -0.106631,-0.425798 -0.174472,-0.845267 -0.114045,-1.287236 0.118957,-0.743057 0.156413,-1.497951 0.331588,-2.231288 0.184225,-0.575514 0.439332,-1.109786 0.774282,-1.61333 0.235614,-0.375447 0.467115,-0.725721 0.36978,-1.187066 -0.111838,-0.701949 0.07055,0.400109 -0.08944,-0.407803 -0.08459,-0.427179 -0.07126,-0.865983 -0.118878,-1.297067 -0.104906,-0.924616 -0.25438,-1.863744 -0.71466,-2.687184 -0.279605,-0.502133 -0.4774,-1.045184 -0.797764,-1.525557 -0.160094,-0.184005 -0.333731,-0.380453 -0.548785,-0.503348 -0.908375,-0.5191 -2.146383,0.825775 1.416297,-1.352743 -0.121689,0.05907 -0.255311,0.09816 -0.365067,0.177225 -0.836027,0.602257 -0.968854,1.784678 -1.166375,2.70835 -0.109785,1.052325 -0.09039,1.54851 0.468115,2.461573 0.919605,1.594858 1.768594,3.226777 2.576486,4.881097 0.209013,0.374998 0.567921,1.078674 0.873194,1.438273 0.08282,0.09755 0.397742,0.155512 0.300589,0.238799 -0.625642,0.536343 -1.408233,0.856694 -2.100308,1.304047 -0.07038,0.04549 0.165338,-0.0459 0.232149,-0.09648 0.07314,-0.05538 0.116931,-0.141385 0.175396,-0.212078 0.38768,-0.533845 0.870044,-0.986852 1.344517,-1.443285 0.296036,-0.492447 0.566953,-0.997853 0.885155,-1.47712 0.02649,-0.05993 0.02354,-0.145653 0.07947,-0.179799 0.803421,-0.490531 1.63581,-0.932492 2.466753,-1.374803 0.04668,-0.02485 0.105147,-0.01219 0.157134,-0.02189 0.807093,-0.150622 2.781647,-1.947797 -1.889001,1.206372 0.03918,-0.02063 0.08685,-0.02997 0.117526,-0.0619 0.310441,-0.323018 -0.230251,-1.353137 -0.318128,-1.670999 -0.73954,-1.709651 -1.679142,-3.317675 -2.804441,-4.804476 -0.361661,-0.443527 -0.729992,-0.947132 -1.212966,-1.274157 -0.06948,-0.04705 -0.148462,-0.08241 -0.229945,-0.102454 -0.05898,-0.01451 -0.233385,0.03382 -0.182227,0.0011 0.705006,-0.451341 1.443944,-0.847344 2.165916,-1.271016 -0.05308,0.0093 -0.109955,0.006 -0.159244,0.02781 -0.415022,0.183348 0.01568,1.022308 0.07269,1.263777 0.368999,0.938333 0.780245,1.888645 1.455919,2.651281 0,0 -2.314348,1.389532 -2.314348,1.389532 z"
       inkscape:connector-curvature="0" />
    <path
       style="opacity:0;fill:#000080;stroke-width:105;stroke-miterlimit:4;stroke-dasharray:none"
       id="path3811"
       d="m 17.214657,32.503706 c 0.0063,0.964291 0.157835,1.92018 0.195429,2.880879 0.135479,0.651254 -0.432286,1.15366 -0.409132,1.777704 0.239149,0.40418 0.690879,0.644601 1.084888,0.876118 0.636384,0.269488 1.479782,0.551675 2.180986,0.500623 0.121873,-0.0089 0.238564,-0.05305 0.357845,-0.07957 0.890963,-0.304268 2.418006,-1.228305 -1.525586,0.939761 -0.06769,0.03721 0.127006,-0.088 0.188819,-0.134322 0.207451,-0.155445 0.169802,-0.130113 0.350957,-0.308078 0.451966,-0.490381 0.968501,-0.912732 1.393738,-1.429781 0.179337,-0.218058 0.344313,-0.447542 0.51647,-0.671312 1.117794,-1.531094 2.005344,-3.219417 2.664026,-4.996391 0.464932,-1.254278 0.59143,-1.837816 0.93245,-3.108302 0.475207,-1.898747 0.691064,-3.848097 0.495173,-5.796892 -0.09659,-0.628018 -0.320221,-1.253319 -0.662274,-1.791021 -0.102549,-0.150393 -0.208001,-0.320192 -0.374404,-0.410002 -0.0341,-0.0184 -0.145125,-0.0146 -0.111301,-0.03349 2.34393,-1.309321 2.161191,-2.053749 2.346388,-1.07509 0.08653,0.185413 0.185998,0.365325 0.259601,0.556241 1.004118,2.60454 1.048919,5.529685 1.153224,8.279112 0.04232,1.952604 0.05933,3.905675 0.03061,5.858581 -0.0156,1.060604 -0.06406,2.117434 -0.04281,3.177907 0.02718,0.110301 0.03734,0.226254 0.08154,0.330903 0.01022,0.0242 0.04791,0.02154 0.07187,0.03232 -0.766766,0.370964 -1.523809,0.762736 -2.300298,1.112891 -0.0601,0.0271 0.101655,-0.08588 0.140674,-0.139014 0.121441,-0.165382 0.207411,-0.354086 0.311454,-0.530931 0.245375,-0.333557 0.114604,-0.178904 0.389873,-0.466012 0,0 2.480298,-1.015833 2.480298,-1.015833 l 0,0 c -0.297003,0.241549 -0.15545,0.109238 -0.423007,0.398692 -0.131831,0.210529 -0.197463,0.298208 -0.297562,0.52469 -0.03382,0.07651 -0.01405,0.193729 -0.08648,0.235579 -0.0594,0.03432 -2.391619,2.017349 -2.641109,1.099231 -0.03539,-0.130236 -0.03149,-0.268074 -0.04723,-0.402111 0.03313,-1.086046 0.131898,-2.166378 0.179687,-3.252156 0.06579,-1.49477 0.08031,-2.18497 0.07377,-3.724107 -0.0031,-0.718391 -0.02012,-1.436654 -0.03018,-2.154981 -0.08971,-1.969911 -0.181729,-3.908455 -0.606244,-5.841358 -0.177177,-0.80672 -0.370589,-1.482934 -0.716739,-2.220279 -0.09014,-0.192008 -0.213225,-0.366749 -0.319837,-0.550124 -0.06464,-0.134143 -0.3122,-0.311962 -0.193927,-0.402428 1.659341,-1.269212 2.184016,-1.97918 2.995207,-0.738746 0.352175,0.584071 0.591537,1.248364 0.675307,1.925499 0.03545,0.474833 0.06988,0.80926 0.06185,1.296298 -0.02589,1.571164 -0.309735,3.127717 -0.663054,4.653768 -0.335082,1.223775 -0.505734,1.932531 -0.935909,3.142033 -0.627097,1.76318 -1.454964,3.452397 -2.512836,4.997883 -0.360807,0.516714 -0.718463,1.019513 -1.160816,1.470721 -0.07563,0.07714 -0.390309,0.347869 -0.479584,0.435107 -0.05901,0.05767 -0.112657,0.120579 -0.168986,0.180869 -0.153179,0.191505 -0.304579,0.371362 -0.518656,0.499035 -1.13464,0.676689 -1.918073,1.396479 -3.108021,1.643237 -0.916777,0.06616 -1.813453,-0.178665 -2.640194,-0.569026 -0.480257,-0.280365 -0.985058,-0.554469 -1.235003,-1.07635 -0.01366,-0.08278 -0.04133,-0.164445 -0.04098,-0.248346 0.0024,-0.5801 0.579958,-0.971903 0.47574,-1.571418 0.0051,-0.755272 0.02256,-0.162666 -0.06785,-0.978621 -0.06869,-0.619929 -0.06673,-1.245634 -0.153674,-1.863843 0,0 2.385817,-1.245741 2.385817,-1.245741 z"
       inkscape:connector-curvature="0" />
    <path
       style="opacity:0;fill:#ff0000;stroke-width:105;stroke-miterlimit:4;stroke-dasharray:none"
       id="path3813"
       d="m 9.7637068,29.124381 c 0.7326512,-1.188746 1.6308262,-2.258198 2.5674062,-3.288857 1.418966,-1.500856 2.907142,-2.933453 4.344103,-4.416582 0.562869,-0.669278 1.167925,-1.275929 1.873947,-1.79084 1.784675,-1.288747 3.725412,-2.334399 5.635824,-3.419646 0.143476,-0.02099 0.288224,-0.09133 0.430428,-0.06298 0.565172,0.112687 0.672013,0.932571 0.739535,1.361981 0.09049,0.57545 0.103743,1.113268 0.135537,1.695284 0.18098,2.216137 -0.338632,4.269451 -0.997475,6.362862 -0.316015,0.997661 -0.646983,1.991955 -0.931588,2.999336 -0.04948,0.175158 -0.09445,0.351644 -0.135264,0.529024 -0.01916,0.08327 0.03984,0.23895 -0.04453,0.252436 -0.07974,0.01275 -0.02782,-0.159098 -0.04173,-0.238647 -0.691915,0.361327 -1.349419,0.798053 -2.075744,1.08398 -0.205179,0.08077 0.315986,-0.307784 0.479582,-0.45563 0.244368,-0.220841 0.492757,-0.437277 0.744054,-0.6502 1.178853,-0.998842 2.403617,-1.931866 3.638319,-2.859936 0.488473,-0.356171 0.974264,-0.71605 1.465419,-1.068513 0.463355,-0.332514 0.941837,-0.644076 1.398026,-0.986356 1.55742,-1.168539 2.438045,-2.243041 4.499438,-2.894255 0.186671,-0.05897 0.21995,0.323908 0.329924,0.485862 0.02517,0.311562 0.07262,0.622122 0.07552,0.934686 0.0049,0.531681 -0.130075,2.573379 -0.157379,2.985708 -0.114151,1.72378 -0.23416,3.447353 -0.360553,5.170276 -0.01016,0.404772 -0.03691,0.809467 -0.03048,1.214315 0.0038,0.240504 0.02822,0.848746 0.171588,1.133429 0.02032,0.04035 0.07474,0.08527 0.116801,0.06878 0.05365,-0.02104 0.139122,-0.175002 0.08771,-0.148968 -0.740072,0.374775 -1.451011,0.804498 -2.176516,1.206747 0,0 2.514943,-0.974554 2.514943,-0.974554 l 0,0 c -0.82962,0.466843 -1.63219,0.985407 -2.48886,1.400531 -0.156214,0.0757 -0.362727,-0.205568 -0.393994,-0.293028 -0.271068,-0.758218 0.03114,-1.747316 -0.0088,-2.505199 0.157098,-1.720288 0.293125,-3.441096 0.372967,-5.167069 0.02903,-0.627595 0.08427,-2.193342 0.05912,-2.896642 -0.0094,-0.263167 -0.05182,-0.524115 -0.07772,-0.786173 -0.473296,-0.787442 -0.28008,-0.310708 1.639886,-1.337387 0.29588,-0.158219 -0.5342,0.406212 -0.797028,0.61478 -0.369904,0.293539 -0.722789,0.608735 -1.10104,0.891439 -0.941877,0.703956 -1.957116,1.306593 -2.871368,2.049252 -1.199367,0.905171 -2.384192,1.816261 -3.525289,2.794474 -0.236237,0.202516 -0.473752,0.403866 -0.701137,0.616272 -0.150637,0.140715 -0.260404,0.328351 -0.432145,0.442358 -0.834352,0.553869 -1.714916,1.034757 -2.572374,1.552136 -0.06611,-0.0734 -0.176054,-0.123954 -0.198318,-0.22019 -0.02227,-0.09624 0.05237,-0.190534 0.08146,-0.284941 0.05733,-0.1861 0.117212,-0.371413 0.177766,-0.55649 0.329927,-1.008373 0.660532,-2.016492 0.987579,-3.025829 0.125532,-0.394261 0.262403,-0.785089 0.376596,-1.182782 0.472684,-1.646199 0.726642,-3.35643 0.609781,-5.070164 -0.03829,-0.577351 -0.05458,-1.071815 -0.151807,-1.639736 -0.03183,-0.185924 -0.123323,-0.731273 -0.312016,-0.915837 -0.175064,-0.171234 -0.432964,-0.0229 -0.601384,0.02557 0.579975,-0.342046 1.160671,-0.682871 1.739925,-1.026137 0.201844,-0.119613 -0.406601,0.234296 -0.60769,0.355174 -0.766743,0.460905 -1.521867,0.936517 -2.242972,1.466579 -0.734974,0.493639 -1.370108,1.086467 -1.940971,1.765411 -1.461968,1.479201 -2.971774,2.910546 -4.395051,4.427997 -0.906034,0.989945 -1.767888,2.022124 -2.457234,3.178184 0,0 -2.4647572,1.098696 -2.4647572,1.098696 z"
       inkscape:connector-curvature="0" />
    <text
       xml:space="preserve"
       style="font-size:30.66853714px;font-style:normal;font-variant:normal;font-weight:normal;font-stretch:normal;line-height:125%;letter-spacing:0px;word-spacing:0px;fill:#0000ff;fill-opacity:1;stroke:none;font-family:Snap ITC;-inkscape-font-specification:Snap ITC"
       x="2.7470646"
       y="4.2447681"
       id="text3819"
       sodipodi:linespacing="125%"
       transform="scale(1.0180077,0.98231086)"><tspan
         sodipodi:role="line"
         id="tspan3821"
         x="2.7470646"
         y="4.2447681"></tspan><tspan
         sodipodi:role="line"
         id="tspan3823"
         x="2.7470646"
         y="42.580441">MC</tspan></text>
    <path
       sodipodi:type="star"
       style="opacity:0;fill:#0000ff;stroke-width:105;stroke-miterlimit:4;stroke-dasharray:none"
       id="path3825"
       sodipodi:sides="5"
       sodipodi:cx="25.636364"
       sodipodi:cy="10.181818"
       sodipodi:r1="35.573693"
       sodipodi:r2="13.856825"
       sodipodi:arg1="1.4889284"
       sodipodi:arg2="2.117247"
       inkscape:flatsided="false"
       inkscape:rounded="0"
       inkscape:randomized="0"
       d="M 28.545456,45.636363 18.435553,22.020734 -7.1839532,23.904586 12.151713,6.9918662 2.4432002,-16.79159 24.503202,-3.6285962 44.122518,-20.211433 38.420682,4.8364644 60.254599,18.371164 34.670669,20.688622 z"
       inkscape:transform-center-x="-0.89895853"
       inkscape:transform-center-y="2.5306475" />
    <path
       sodipodi:type="star"
       style="opacity:0;fill:#0000ff;stroke-width:105;stroke-miterlimit:4;stroke-dasharray:none"
       id="path3827"
       sodipodi:sides="5"
       sodipodi:cx="26.181818"
       sodipodi:cy="46.727273"
       sodipodi:r1="37.274501"
       sodipodi:r2="14.519331"
       sodipodi:arg1="-1.5610405"
       sodipodi:arg2="-0.93272201"
       inkscape:flatsided="false"
       inkscape:rounded="0"
       inkscape:randomized="0"
       d="M 26.545456,9.454544 34.830254,35.064702 61.742659,35.555206 39.946094,51.348491 47.795989,77.095283 26.040173,61.245912 3.979269,76.667801 12.33,51.079066 -9.1542826,34.863526 17.762569,34.898189 z"
       inkscape:transform-center-x="-0.11236982"
       inkscape:transform-center-y="-3.4523587" />
    <g
       sodipodi:type="inkscape:box3d"
       style="opacity:0;fill:#0000ff;stroke-width:105;stroke-miterlimit:4;stroke-dasharray:none"
       id="g3829"
       inkscape:perspectiveID="#perspective3911"
       inkscape:corner0="1.3157895 : -0.0092614767 : 0 : 1"
       inkscape:corner7="0.053892216 : -0.034807018 : 0.74128722 : 1">
      <path
         sodipodi:type="inkscape:box3dside"
         id="path3839"
         style="fill:#afafde;fill-rule:evenodd;stroke:none"
         inkscape:box3dsidetype="13"
         d="M 13.818182,46.948295 31.450902,62.057417 46.253171,50.607748 26.786008,43.888505 z" />
      <path
         sodipodi:type="inkscape:box3dside"
         id="path3831"
         style="fill:#353564;fill-rule:evenodd;stroke:none"
         inkscape:box3dsidetype="6"
         d="m 13.818182,39.859599 0,7.088696 12.967826,-3.05979 0,-5.369812 z" />
      <path
         sodipodi:type="inkscape:box3dside"
         id="path3841"
         style="fill:#e9e9ff;fill-rule:evenodd;stroke:none"
         inkscape:box3dsidetype="11"
         d="m 26.786008,38.518693 19.467163,2.944604 0,9.144451 -19.467163,-6.719243 z" />
      <path
         sodipodi:type="inkscape:box3dside"
         id="path3833"
         style="fill:#4d4d9f;fill-rule:evenodd;stroke:none"
         inkscape:box3dsidetype="5"
         d="m 13.818182,39.859599 17.63272,6.62134 14.802269,-5.017642 -19.467163,-2.944604 z" />
      <path
         sodipodi:type="inkscape:box3dside"
         id="path3837"
         style="fill:#d7d7ff;fill-rule:evenodd;stroke:none"
         inkscape:box3dsidetype="14"
         d="m 31.450902,46.480939 0,15.576478 14.802269,-11.449669 0,-9.144451 z" />
      <path
         sodipodi:type="inkscape:box3dside"
         id="path3835"
         style="fill:#8686bf;fill-rule:evenodd;stroke:none"
         inkscape:box3dsidetype="3"
         d="m 13.818182,39.859599 17.63272,6.62134 0,15.576478 -17.63272,-15.109122 z" />
    </g>
    <use
       id="use3905"
       xlink:href="#text3819"
       x="0"
       y="0"
       width="64"
       height="64"
       transform="matrix(0.70780022,0,0,0.75406548,7.1684511,25.026055)"
       style="fill:#00ff00" />
    <path
       style="opacity:0;fill:#00ff00;stroke-width:105;stroke-miterlimit:4;stroke-dasharray:none"
       d="m 15.681818,57.090769 c -2.725,-0.254154 -4.953915,-0.509458 -4.953145,-0.567342 7.64e-4,-0.05788 0.309673,-0.281207 0.686451,-0.496271 l 0.685051,-0.391027 0.607836,-6.299534 c 0.33431,-3.464746 0.577679,-6.319288 0.540822,-6.34343 -0.03686,-0.02414 -0.511816,-0.245207 -1.055463,-0.491256 l -0.988448,-0.447364 0.624812,-0.09551 c 0.343646,-0.05253 -1.257007,-0.248617 -3.5570067,-0.435744 -2.3,-0.187127 -4.2473387,-0.397849 -4.3274193,-0.468271 -0.080081,-0.07042 0.3112609,-0.365245 0.8696479,-0.655165 0.6127952,-0.318168 1.0453203,-0.671275 1.0911083,-0.890762 0.041723,-0.2 0.4099411,-3.636364 0.8182633,-7.636364 0.4083221,-4 0.7871045,-7.602072 0.8417387,-8.004605 L 7.6654009,23.136243 6.1994355,22.516538 C 5.3931544,22.1757 4.7703269,21.859976 4.8153742,21.814929 4.9762451,21.654058 18.265659,20.156788 18.384175,20.286181 c 0.0665,0.0726 0.50853,1.768364 0.982298,3.768364 0.473767,2 0.921208,3.74857 0.994314,3.88571 0.134056,0.251478 0.416737,-0.682389 1.372469,-4.534098 0.262179,-1.056614 0.542189,-2.027098 0.622246,-2.156632 0.118858,-0.192316 1.125103,-0.181558 5.485936,0.05865 2.937209,0.161793 5.872198,0.345569 6.522198,0.408393 l 1.181819,0.114224 -1.715968,0.57796 c -0.943782,0.317878 -1.75064,0.681974 -1.793016,0.809103 -0.04238,0.127129 0.313191,3.81814 0.790149,8.202247 l 0.867195,7.971104 1.778536,0.9638 c 0.978196,0.530089 1.753367,0.988969 1.722604,1.019733 -0.03076,0.03076 -3.676695,-0.07331 -8.10207,-0.231264 -4.425374,-0.157958 -8.069592,-0.263042 -8.098261,-0.23352 -0.08282,0.08529 1.266316,5.962995 1.368191,5.960729 0.05045,-0.0011 0.382361,-1.20794 0.73758,-2.681818 0.564969,-2.344191 0.690198,-2.676527 1,-2.653816 0.194781,0.01427 2.317787,0.129769 4.717787,0.256645 l 4.363636,0.230684 -1.318182,0.440325 -1.318181,0.440324 0.01487,0.757574 c 0.0082,0.416668 0.274088,3.211171 0.590909,6.210011 l 0.576042,5.452433 1.232417,0.709089 c 0.677829,0.39 1.209647,0.726726 1.181818,0.74828 -0.09308,0.0721 -11.780762,-0.395431 -11.85974,-0.474409 -0.04283,-0.04283 0.353865,-0.311405 0.881538,-0.596845 l 0.959404,-0.51898 0.952007,-4.567819 c 0.523605,-2.512301 0.998836,-4.764114 1.056073,-5.004029 0.209252,-0.877138 -0.295762,-0.149921 -2.506828,3.609804 -1.235996,2.101705 -2.302361,3.761071 -2.369699,3.68748 -0.06734,-0.07359 -1.001213,-2.080138 -2.075278,-4.458993 -1.074065,-2.378854 -1.986963,-4.291072 -2.028662,-4.249374 -0.06562,0.06562 1.218684,9.699812 1.51385,11.356105 0.09447,0.530131 0.267843,0.682035 1.494079,1.309093 1.635512,0.836347 1.973359,0.819871 -4.476433,0.218318 l -6e-6,0 z M 20,40.796298 c 0.15,-0.125303 0.845455,-0.536111 1.545455,-0.912903 0.7,-0.376793 1.293869,-0.704479 1.319709,-0.728188 0.105236,-0.09656 2.94538,-13.077996 2.876369,-13.147008 -0.08283,-0.08283 -0.171391,0.05354 -4.009573,6.174428 -1.486417,2.370444 -2.751793,4.279482 -2.811946,4.242306 -0.06015,-0.03718 -1.373829,-2.698619 -2.91928,-5.914315 -1.545451,-3.215697 -2.839625,-5.757581 -2.875941,-5.648633 -0.03632,0.10895 0.448771,3.678287 1.077972,7.931861 l 1.144002,7.733772 0.735707,0.349557 c 0.60793,0.288845 0.988334,0.331961 2.190253,0.248252 0.8,-0.05572 1.577273,-0.203825 1.727273,-0.329129 l 0,0 z"
       id="path3907"
       inkscape:connector-curvature="0" />
    <path
       style="opacity:0;fill:#00ff00;stroke-width:105;stroke-miterlimit:4;stroke-dasharray:none"
       d="m 15.681818,57.090769 c -2.725,-0.254154 -4.953915,-0.509458 -4.953145,-0.567342 7.64e-4,-0.05788 0.309673,-0.281207 0.686451,-0.496271 l 0.685051,-0.391027 0.607836,-6.299534 c 0.33431,-3.464746 0.577679,-6.319288 0.540822,-6.34343 -0.03686,-0.02414 -0.511816,-0.245207 -1.055463,-0.491256 l -0.988448,-0.447364 0.624812,-0.09551 c 0.343646,-0.05253 -1.257007,-0.248617 -3.5570067,-0.435744 -2.3,-0.187127 -4.2473387,-0.397849 -4.3274193,-0.468271 -0.080081,-0.07042 0.3112609,-0.365245 0.8696479,-0.655165 0.6127952,-0.318168 1.0453203,-0.671275 1.0911083,-0.890762 0.041723,-0.2 0.4099411,-3.636364 0.8182633,-7.636364 0.4083221,-4 0.7871045,-7.602072 0.8417387,-8.004605 L 7.6654009,23.136243 6.1994355,22.516538 C 5.3931544,22.1757 4.7703269,21.859976 4.8153742,21.814929 4.9762451,21.654058 18.265659,20.156788 18.384175,20.286181 c 0.0665,0.0726 0.50853,1.768364 0.982298,3.768364 0.473767,2 0.921208,3.74857 0.994314,3.88571 0.134056,0.251478 0.416737,-0.682389 1.372469,-4.534098 0.262179,-1.056614 0.542189,-2.027098 0.622246,-2.156632 0.118858,-0.192316 1.125103,-0.181558 5.485936,0.05865 2.937209,0.161793 5.872198,0.345569 6.522198,0.408393 l 1.181819,0.114224 -1.715968,0.57796 c -0.943782,0.317878 -1.75064,0.681974 -1.793016,0.809103 -0.04238,0.127129 0.313191,3.81814 0.790149,8.202247 l 0.867195,7.971104 1.778536,0.9638 c 0.978196,0.530089 1.753367,0.988969 1.722604,1.019733 -0.03076,0.03076 -3.676695,-0.07331 -8.10207,-0.231264 -4.425374,-0.157958 -8.069592,-0.263042 -8.098261,-0.23352 -0.08282,0.08529 1.266316,5.962995 1.368191,5.960729 0.05045,-0.0011 0.382361,-1.20794 0.73758,-2.681818 0.564969,-2.344191 0.690198,-2.676527 1,-2.653816 0.194781,0.01427 2.317787,0.129769 4.717787,0.256645 l 4.363636,0.230684 -1.318182,0.440325 -1.318181,0.440324 0.01487,0.757574 c 0.0082,0.416668 0.274088,3.211171 0.590909,6.210011 l 0.576042,5.452433 1.232417,0.709089 c 0.677829,0.39 1.209647,0.726726 1.181818,0.74828 -0.09308,0.0721 -11.780762,-0.395431 -11.85974,-0.474409 -0.04283,-0.04283 0.353865,-0.311405 0.881538,-0.596845 l 0.959404,-0.51898 0.952007,-4.567819 c 0.523605,-2.512301 0.998836,-4.764114 1.056073,-5.004029 0.209252,-0.877138 -0.295762,-0.149921 -2.506828,3.609804 -1.235996,2.101705 -2.302361,3.761071 -2.369699,3.68748 -0.06734,-0.07359 -1.001213,-2.080138 -2.075278,-4.458993 -1.074065,-2.378854 -1.986963,-4.291072 -2.028662,-4.249374 -0.06562,0.06562 1.218684,9.699812 1.51385,11.356105 0.09447,0.530131 0.267843,0.682035 1.494079,1.309093 1.635512,0.836347 1.973359,0.819871 -4.476433,0.218318 l -6e-6,0 z M 20,40.796298 c 0.15,-0.125303 0.845455,-0.536111 1.545455,-0.912903 0.7,-0.376793 1.293869,-0.704479 1.319709,-0.728188 0.105236,-0.09656 2.94538,-13.077996 2.876369,-13.147008 -0.08283,-0.08283 -0.171391,0.05354 -4.009573,6.174428 -1.486417,2.370444 -2.751793,4.279482 -2.811946,4.242306 -0.06015,-0.03718 -1.373829,-2.698619 -2.91928,-5.914315 -1.545451,-3.215697 -2.839625,-5.757581 -2.875941,-5.648633 -0.03632,0.10895 0.448771,3.678287 1.077972,7.931861 l 1.144002,7.733772 0.735707,0.349557 c 0.60793,0.288845 0.988334,0.331961 2.190253,0.248252 0.8,-0.05572 1.577273,-0.203825 1.727273,-0.329129 l 0,0 z"
       id="path3909"
       inkscape:connector-curvature="0" />
  </g>
</svg>
